<svg width="1000" height="300" viewBox="0 0 1000 300" fill="none" xmlns="http://www.w3.org/2000/svg">
<g clip-path="url(#clip0_1_3)">
<g clip-path="url(#clip1_1_3)">
<g clip-path="url(#clip2_1_3)">
<g clip-path="url(#clip3_1_3)">
<g clip-path="url(#clip4_1_3)">
<path d="M386.18 161.581C387.125 162.053 387.862 162.668 388.392 163.424C388.902 164.18 389.157 165.267 389.157 166.684C389.157 168.48 388.477 169.916 387.116 170.993C385.736 172.09 384.148 172.638 382.353 172.638C380.274 172.638 377.911 172.118 375.265 171.079C369.973 168.716 364.803 164.34 359.757 157.952C354.691 151.582 348.615 142.397 341.527 130.395C336.14 134.553 330.659 138.427 325.083 142.019C325.083 144.003 325.159 146.29 325.31 148.88C325.443 151.488 325.509 153.406 325.509 154.635C325.698 160.116 325.792 163.754 325.792 165.55C325.792 167.157 325.272 168.688 324.233 170.143C323.193 171.617 321.634 172.354 319.555 172.354C316.531 172.354 314.357 171.853 313.034 170.852C311.711 169.869 310.908 168.432 310.624 166.542C309.868 161.817 309.49 157.281 309.49 152.934C309.49 148.02 309.868 140.932 310.624 131.67C311.38 122.787 311.758 116.125 311.758 111.683C311.758 109.982 311.664 107.525 311.475 104.312C311.38 101.76 311.097 99.3973 310.624 97.2238C310.246 94.1996 310.057 92.0733 310.057 90.8447C310.057 87.8206 310.719 85.647 312.042 84.324C313.365 83.0009 315.397 82.3394 318.137 82.3394C320.216 82.3394 321.946 82.9253 323.326 84.0972C324.686 85.2879 325.461 86.8756 325.65 88.8602C326.123 96.893 326.359 103.083 326.359 107.43C326.265 109.793 326.104 113.167 325.877 117.552C325.632 121.955 325.414 124.724 325.225 125.858C328.438 124.063 334.751 118.884 344.164 110.322C353.557 101.779 360.239 95.0502 364.208 90.136L366.051 88.0096C367.563 86.0251 368.839 84.6547 369.878 83.8987C370.918 83.1427 372.335 82.7647 374.131 82.7647C375.926 82.7647 377.561 83.3506 379.036 84.5224C380.491 85.7132 381.219 87.1118 381.219 88.7184C381.219 91.837 379.612 95.0029 376.399 98.2161C368.555 106.343 360.711 113.904 352.868 120.897C363.924 141.593 375.029 155.155 386.18 161.581ZM404.892 81.3471C408.2 81.6306 411.082 82.5001 413.539 83.9554C415.996 85.4297 417.225 87.6316 417.225 90.5612C417.225 92.7348 416.204 94.4548 414.163 95.7211C412.14 97.0064 409.712 97.649 406.877 97.649C404.136 97.649 402.246 96.9402 401.206 95.5227C400.167 94.1051 399.647 92.6403 399.647 91.1283C399.647 88.2931 399.949 85.9305 400.554 84.0405C401.178 82.1504 402.624 81.2526 404.892 81.3471ZM416.232 118.629V144.145V148.256C416.232 151.942 416.346 155.41 416.573 158.661C416.818 161.931 417.13 165.219 417.508 168.527C417.414 169.472 416.705 170.436 415.382 171.419C414.059 172.42 412.877 172.921 411.838 172.921C410.042 172.921 408.218 172.562 406.366 171.844C404.533 171.145 403.427 170.275 403.049 169.236C402.482 166.212 402.199 163.518 402.199 161.156C402.199 153.406 401.962 144.712 401.49 135.073C401.112 126.567 400.923 120.613 400.923 117.211C400.923 115.51 401.773 114.045 403.474 112.817C405.175 111.588 406.971 110.974 408.861 110.974C411.602 110.974 413.511 111.588 414.588 112.817C415.684 114.045 416.232 115.983 416.232 118.629ZM473.644 140.459C474.4 140.932 475.883 141.801 478.095 143.068C480.325 144.353 481.818 145.846 482.574 147.547C483.33 149.248 483.708 151.611 483.708 154.635C483.708 158.037 482.716 161.033 480.731 163.622C478.747 166.23 476.195 168.243 473.076 169.661C470.808 170.701 468.039 171.504 464.77 172.071C461.519 172.638 458.948 172.921 457.058 172.921C455.168 172.921 452.73 172.638 449.743 172.071C446.776 171.504 444.725 170.984 443.591 170.512C440.662 168.81 438.129 166.731 435.993 164.274C433.876 161.817 432.818 159.313 432.818 156.761C432.818 154.871 433.432 153.378 434.661 152.282C435.889 151.204 437.496 150.666 439.48 150.666C440.425 150.666 441.418 151.015 442.457 151.715C443.497 152.433 444.206 153.17 444.584 153.926C445.623 156.383 447.371 158.226 449.829 159.455C452.286 160.683 454.79 161.297 457.342 161.297C460.649 161.297 463.721 160.749 466.556 159.653C469.391 158.576 470.808 157.092 470.808 155.202C470.808 154.351 470.591 153.661 470.156 153.132C469.74 152.622 469.155 152.083 468.399 151.516C467.075 150.571 465.091 149.787 462.445 149.163C459.799 148.558 458.098 148.161 457.342 147.972C453.467 147.122 449.687 145.846 446.001 144.145C442.315 142.349 439.386 140.223 437.212 137.766C435.039 135.309 433.952 132.143 433.952 128.268C433.952 125.717 434.897 123.042 436.787 120.245C438.677 117.466 440.803 115.51 443.166 114.376C444.867 113.715 447.721 113.006 451.728 112.25C455.754 111.494 458.476 111.116 459.893 111.116C462.067 111.116 464.429 111.324 466.981 111.74C469.533 112.174 471.47 112.864 472.793 113.809C475.345 115.321 477.424 116.899 479.03 118.544C480.637 120.207 481.44 122.078 481.44 124.157C481.44 125.197 481.204 126.303 480.731 127.474C480.259 128.665 479.692 129.402 479.03 129.686C477.613 130.347 475.959 130.678 474.069 130.678C473.218 130.678 472.528 130.442 471.999 129.969C471.489 129.497 470.808 128.741 469.958 127.701C468.918 126.095 467.926 125.15 466.981 124.866C465.847 124.583 464.193 124.224 462.02 123.789C459.846 123.373 458.381 123.165 457.625 123.165C455.452 123.165 453.202 123.779 450.878 125.008C448.572 126.236 447.419 127.654 447.419 129.261C447.419 130.111 447.768 130.773 448.468 131.245C449.186 131.718 449.942 132.143 450.736 132.521C451.548 132.899 452.097 133.135 452.38 133.23C454.365 134.175 456.557 134.978 458.958 135.64C461.377 136.301 462.87 136.726 463.437 136.915C468.54 138.144 471.942 139.325 473.644 140.459ZM561.504 165.55C561.504 167.629 560.398 169.377 558.187 170.795C555.956 172.213 553.896 172.921 552.006 172.921C548.415 172.921 545.561 172.468 543.444 171.561C541.308 170.672 539.343 168.999 537.547 166.542C535.09 168.716 531.735 170.341 527.482 171.419C523.23 172.515 519.308 173.063 515.717 173.063C509.857 173.063 505.038 171.475 501.258 168.3C497.477 165.144 495.587 160.494 495.587 154.351C495.587 151.705 496.296 149.267 497.714 147.037C499.131 144.825 501.069 142.869 503.526 141.168C506.266 139.372 509.385 137.974 512.882 136.972C516.378 135.989 520.017 135.498 523.797 135.498C525.781 135.498 528.144 135.876 530.884 136.632C533.625 137.388 535.751 138.191 537.264 139.042V136.774C537.264 131.67 536.035 128.145 533.578 126.199C531.121 124.271 527.152 123.307 521.67 123.307C520.064 123.307 518.486 123.638 516.936 124.299C515.367 124.961 513.59 125.858 511.606 126.992C508.96 128.41 506.455 129.119 504.093 129.119C503.242 129.119 502.439 128.523 501.683 127.333C500.927 126.161 500.549 125.102 500.549 124.157C500.549 121.417 501.853 119.054 504.461 117.07C507.051 115.085 510.141 113.592 513.732 112.59C517.323 111.607 520.536 111.116 523.371 111.116C526.207 111.116 529.467 111.655 533.153 112.732C536.838 113.828 539.862 115.321 542.225 117.211C545.06 119.668 547.262 122.522 548.831 125.773C550.381 129.043 551.156 132.615 551.156 136.49C551.156 137.719 551.061 139.561 550.872 142.019C550.683 144.665 550.589 146.933 550.589 148.823C550.589 149.673 550.494 150.949 550.305 152.65C550.116 154.729 550.022 156.383 550.022 157.612C550.022 158.746 550.447 159.719 551.297 160.532C552.148 161.326 553.14 161.723 554.274 161.723L558.243 161.581C559.283 161.581 560.086 161.959 560.653 162.715C561.22 163.471 561.504 164.416 561.504 165.55ZM515.858 161.864C519.922 161.864 523.324 161.439 526.065 160.589C528.805 159.738 532.113 158.179 535.988 155.911C536.366 154.304 536.602 152.178 536.696 149.532C531.499 147.075 527.199 145.846 523.797 145.846C519.922 145.846 516.473 146.555 513.449 147.972C510.424 149.39 508.912 151.894 508.912 155.485C508.912 157.281 509.668 158.793 511.18 160.022C512.693 161.25 514.252 161.864 515.858 161.864ZM635.5 161.439C635.973 161.628 636.729 161.864 637.768 162.148C638.808 162.431 639.564 162.715 640.036 162.998C640.509 163.282 640.745 163.707 640.745 164.274C640.84 166.542 640.018 168.404 638.279 169.859C636.521 171.334 634.461 172.071 632.098 172.071C628.413 172.071 625.53 171.079 623.451 169.094C621.372 167.109 619.86 164.085 618.915 160.022C618.537 158.415 618.348 156.194 618.348 153.359C618.348 151.753 618.442 149.154 618.631 145.562C618.82 141.782 618.915 138.758 618.915 136.49C618.915 133.182 617.998 130.272 616.165 127.758C614.313 125.263 611.733 124.016 608.425 124.016C606.44 124.016 604.361 124.602 602.188 125.773C600.014 126.964 598.502 128.41 597.652 130.111C596.234 132.852 595.242 135.829 594.675 139.042C593.635 144.712 593.115 150.618 593.115 156.761C593.115 159.691 593.163 161.959 593.257 163.565C593.257 163.944 593.285 164.671 593.342 165.749C593.38 166.845 593.285 167.837 593.059 168.725C592.813 169.633 592.407 170.464 591.84 171.22C591.367 171.693 590.639 172.099 589.656 172.439C588.655 172.761 587.729 172.921 586.878 172.921C585.555 172.921 583.901 172.354 581.917 171.22C579.932 170.086 578.798 168.81 578.514 167.393L578.373 164.983C578.373 164.133 578.467 163.14 578.656 162.006C579.79 155.391 580.357 149.626 580.357 144.712C580.357 142.538 580.31 140.837 580.216 139.609L580.074 132.946C580.074 130.678 579.507 128.476 578.373 126.34C577.239 124.224 575.916 123.165 574.404 123.165C573.931 123.165 573.269 123.326 572.419 123.647C571.568 123.987 570.86 124.157 570.293 124.157C569.348 124.157 568.336 123.685 567.259 122.74C566.163 121.795 565.615 120.802 565.615 119.763C565.615 117.778 566.276 116.172 567.599 114.943C569.017 113.809 570.415 112.911 571.795 112.25C573.156 111.588 574.734 111.258 576.53 111.258C578.042 111.258 579.27 111.399 580.216 111.683C581.161 111.966 582.436 112.581 584.043 113.526C584.893 113.998 585.886 115.038 587.02 116.644C588.154 118.251 589.099 120.519 589.855 123.449C592.312 118.912 595.365 115.718 599.012 113.866C602.641 112.033 607.291 111.116 612.961 111.116C615.135 111.116 617.478 111.825 619.992 113.242C622.487 114.66 624.632 116.314 626.428 118.204C628.129 120.283 629.547 122.853 630.681 125.915C631.815 128.996 632.382 131.765 632.382 134.222C632.382 135.64 632.287 137.955 632.098 141.168C631.815 143.72 631.673 146.413 631.673 149.248C631.673 155.863 632.949 159.927 635.5 161.439ZM690.643 140.459C691.399 140.932 692.883 141.801 695.094 143.068C697.325 144.353 698.818 145.846 699.574 147.547C700.33 149.248 700.708 151.611 700.708 154.635C700.708 158.037 699.716 161.033 697.731 163.622C695.747 166.23 693.195 168.243 690.076 169.661C687.808 170.701 685.039 171.504 681.769 172.071C678.518 172.638 675.948 172.921 674.058 172.921C672.168 172.921 669.73 172.638 666.743 172.071C663.776 171.504 661.725 170.984 660.591 170.512C657.661 168.81 655.129 166.731 652.993 164.274C650.876 161.817 649.818 159.313 649.818 156.761C649.818 154.871 650.432 153.378 651.66 152.282C652.889 151.204 654.496 150.666 656.48 150.666C657.425 150.666 658.418 151.015 659.457 151.715C660.497 152.433 661.205 153.17 661.583 153.926C662.623 156.383 664.371 158.226 666.828 159.455C669.285 160.683 671.79 161.297 674.341 161.297C677.649 161.297 680.72 160.749 683.556 159.653C686.391 158.576 687.808 157.092 687.808 155.202C687.808 154.351 687.591 153.661 687.156 153.132C686.74 152.622 686.154 152.083 685.398 151.516C684.075 150.571 682.091 149.787 679.445 149.163C676.799 148.558 675.097 148.161 674.341 147.972C670.467 147.122 666.687 145.846 663.001 144.145C659.315 142.349 656.386 140.223 654.212 137.766C652.038 135.309 650.952 132.143 650.952 128.268C650.952 125.717 651.897 123.042 653.787 120.245C655.677 117.466 657.803 115.51 660.166 114.376C661.867 113.715 664.721 113.006 668.728 112.25C672.754 111.494 675.475 111.116 676.893 111.116C679.067 111.116 681.429 111.324 683.981 111.74C686.532 112.174 688.47 112.864 689.793 113.809C692.344 115.321 694.423 116.899 696.03 118.544C697.637 120.207 698.44 122.078 698.44 124.157C698.44 125.197 698.204 126.303 697.731 127.474C697.259 128.665 696.692 129.402 696.03 129.686C694.612 130.347 692.959 130.678 691.069 130.678C690.218 130.678 689.528 130.442 688.999 129.969C688.489 129.497 687.808 128.741 686.958 127.701C685.918 126.095 684.926 125.15 683.981 124.866C682.847 124.583 681.193 124.224 679.019 123.789C676.846 123.373 675.381 123.165 674.625 123.165C672.451 123.165 670.202 123.779 667.877 125.008C665.571 126.236 664.419 127.654 664.419 129.261C664.419 130.111 664.768 130.773 665.467 131.245C666.186 131.718 666.942 132.143 667.736 132.521C668.548 132.899 669.096 133.135 669.38 133.23C671.365 134.175 673.557 134.978 675.957 135.64C678.377 136.301 679.87 136.726 680.437 136.915C685.54 138.144 688.942 139.325 690.643 140.459ZM712.899 142.302C712.899 138.711 713.561 135.091 714.884 131.444C716.207 127.815 717.955 124.488 720.129 121.464C722.302 118.44 725.752 115.954 730.477 114.008C735.202 112.08 739.407 111.116 743.093 111.116C746.873 111.116 750.719 111.636 754.632 112.675C758.563 113.715 761.285 115.321 762.797 117.495C766.294 122.409 768.042 127.229 768.042 131.954C768.042 134.506 767.494 136.679 766.398 138.475C765.32 140.27 763.789 142.208 761.805 144.287C760.198 145.988 757.665 147.122 754.207 147.689C750.767 148.256 747.346 148.539 743.944 148.539C741.77 148.539 739.124 148.322 736.005 147.887C732.887 147.471 729.862 146.933 726.933 146.271C727.122 148.161 727.594 150.004 728.35 151.8C729.106 153.595 730.004 154.966 731.044 155.911C732.934 157.706 734.89 158.84 736.912 159.313C738.954 159.785 741.581 160.022 744.794 160.022C748.196 160.022 751.362 159.455 754.292 158.321C756.654 157.47 758.592 157.045 760.104 157.045C761.899 157.045 763.27 157.583 764.215 158.661C765.16 159.757 765.632 161.156 765.632 162.857C765.632 165.219 764.262 167.157 761.521 168.669C758.781 170.181 755.634 171.286 752.08 171.986C748.546 172.704 745.692 173.063 743.518 173.063C739.077 173.063 734.777 172.26 730.618 170.653C726.46 169.047 723.011 166.779 720.27 163.849C718.002 161.203 716.207 158.009 714.884 154.266C713.561 150.543 712.899 146.555 712.899 142.302ZM743.802 123.165C741.723 123.165 739.644 123.562 737.565 124.356C735.485 125.169 733.784 126.284 732.461 127.701C730.76 129.497 729.598 130.933 728.974 132.011C728.369 133.107 727.972 134.6 727.783 136.49C730.146 137.246 735.06 137.624 742.526 137.624C746.59 137.624 749.727 137.01 751.939 135.781C754.169 134.553 755.284 132.946 755.284 130.962C755.284 128.977 754.055 127.181 751.598 125.575C749.141 123.968 746.542 123.165 743.802 123.165ZM847.113 138.616C847.68 136.537 848.295 133.702 848.956 130.111C849.901 125.858 850.657 122.645 851.224 120.472C851.791 118.298 852.547 116.455 853.492 114.943C854.532 113.242 855.458 112.108 856.271 111.541C857.065 110.974 857.934 110.691 858.879 110.691C863.793 110.691 866.25 112.581 866.25 116.361C866.25 118.251 865.494 121.795 863.982 126.992C858.974 142.113 855.383 153.832 853.209 162.148C852.264 165.645 850.846 168.31 848.956 170.143C847.066 171.995 844.515 172.921 841.301 172.921C839.695 172.921 838.069 172.137 836.425 170.568C834.762 169.018 833.41 167.109 832.371 164.841L830.812 161.014C828.165 154.304 826.209 149.135 824.943 145.506C823.658 141.858 822.826 138.569 822.448 135.64L821.172 140.176C818.904 148.303 816.541 155.863 814.084 162.857C812.856 166.448 811.344 169.018 809.548 170.568C807.753 172.137 805.437 172.921 802.602 172.921C800.901 172.921 799.417 172.543 798.151 171.787C796.866 171.031 795.656 169.755 794.522 167.96C793.01 165.503 791.573 162.195 790.213 158.037C788.833 153.879 786.867 147.405 784.316 138.616C783.087 134.836 781.953 130.839 780.913 126.624C779.874 122.428 779.354 119.479 779.354 117.778C779.354 115.794 779.874 114.234 780.913 113.1C781.953 111.966 783.465 111.399 785.45 111.399C788.001 111.399 789.797 111.891 790.836 112.874C791.876 113.875 792.821 115.369 793.671 117.353C794.144 120.755 795.184 125.575 796.79 131.812L799.909 145.137C800.098 146.177 800.665 148.35 801.61 151.658L802.744 155.769C804.823 151.327 806.571 147.075 807.989 143.011C809.406 138.947 810.966 133.939 812.667 127.985C812.761 127.607 813.706 124.346 815.502 118.204C816.73 116.219 817.817 114.726 818.762 113.724C819.707 112.741 820.652 112.25 821.597 112.25C823.487 112.25 825.122 112.836 826.502 114.008C827.863 115.198 828.874 116.644 829.536 118.345C830.67 122.031 831.662 125.386 832.513 128.41C832.891 129.639 833.769 132.587 835.149 137.256C836.51 141.943 837.758 145.893 838.892 149.106C840.026 152.32 840.971 154.588 841.727 155.911L847.113 138.616ZM942.657 165.55C942.657 167.629 941.551 169.377 939.34 170.795C937.109 172.213 935.049 172.921 933.159 172.921C929.568 172.921 926.714 172.468 924.597 171.561C922.461 170.672 920.496 168.999 918.7 166.542C916.243 168.716 912.888 170.341 908.635 171.419C904.383 172.515 900.461 173.063 896.87 173.063C891.01 173.063 886.191 171.475 882.411 168.3C878.63 165.144 876.74 160.494 876.74 154.351C876.74 151.705 877.449 149.267 878.867 147.037C880.284 144.825 882.222 142.869 884.679 141.168C887.419 139.372 890.538 137.974 894.035 136.972C897.531 135.989 901.17 135.498 904.95 135.498C906.934 135.498 909.297 135.876 912.038 136.632C914.778 137.388 916.905 138.191 918.417 139.042V136.774C918.417 131.67 917.188 128.145 914.731 126.199C912.274 124.271 908.305 123.307 902.823 123.307C901.217 123.307 899.639 123.638 898.089 124.299C896.52 124.961 894.743 125.858 892.759 126.992C890.113 128.41 887.608 129.119 885.246 129.119C884.395 129.119 883.592 128.523 882.836 127.333C882.08 126.161 881.702 125.102 881.702 124.157C881.702 121.417 883.006 119.054 885.614 117.07C888.204 115.085 891.294 113.592 894.885 112.59C898.476 111.607 901.689 111.116 904.525 111.116C907.36 111.116 910.62 111.655 914.306 112.732C917.991 113.828 921.015 115.321 923.378 117.211C926.213 119.668 928.415 122.522 929.984 125.773C931.534 129.043 932.309 132.615 932.309 136.49C932.309 137.719 932.214 139.561 932.025 142.019C931.836 144.665 931.742 146.933 931.742 148.823C931.742 149.673 931.647 150.949 931.458 152.65C931.269 154.729 931.175 156.383 931.175 157.612C931.175 158.746 931.6 159.719 932.45 160.532C933.301 161.326 934.293 161.723 935.427 161.723L939.396 161.581C940.436 161.581 941.239 161.959 941.806 162.715C942.373 163.471 942.657 164.416 942.657 165.55ZM897.011 161.864C901.075 161.864 904.477 161.439 907.218 160.589C909.959 159.738 913.266 158.179 917.141 155.911C917.519 154.304 917.755 152.178 917.85 149.532C912.652 147.075 908.352 145.846 904.95 145.846C901.075 145.846 897.626 146.555 894.602 147.972C891.578 149.39 890.065 151.894 890.065 155.485C890.065 157.281 890.821 158.793 892.334 160.022C893.846 161.25 895.405 161.864 897.011 161.864Z" fill="#964B00"/>
</g>
</g>
<path d="M335.521 217.696C335.593 218.884 335.575 220.108 335.467 221.368C335.395 222.628 335.269 223.852 335.089 225.04C334.729 227.092 334.063 229.09 333.091 231.034C332.119 232.978 330.697 234.634 328.825 236.002C326.881 237.442 324.667 238.432 322.183 238.972C319.699 239.476 317.233 239.782 314.785 239.89C313.957 239.962 313.111 239.98 312.247 239.944C311.419 239.944 310.609 239.854 309.817 239.674C309.169 239.566 308.683 239.368 308.359 239.08C308.179 238.972 308.035 238.828 307.927 238.648C307.819 238.468 307.729 238.288 307.657 238.108C307.549 237.928 307.459 237.748 307.387 237.568C307.351 237.352 307.297 237.136 307.225 236.92C307.189 236.74 307.153 236.578 307.117 236.434C307.117 236.254 307.117 236.092 307.117 235.948V205.114C307.117 204.862 307.117 204.628 307.117 204.412C307.117 204.196 307.153 203.98 307.225 203.764C307.297 203.26 307.405 202.846 307.549 202.522C307.693 202.09 307.891 201.784 308.143 201.604C308.359 201.424 308.575 201.298 308.791 201.226C309.007 201.118 309.205 201.028 309.385 200.956C309.601 200.884 309.817 200.884 310.033 200.956C310.285 200.992 310.555 200.938 310.843 200.794L319.861 201.01C322.237 201.082 324.361 201.64 326.233 202.684C328.105 203.692 329.707 204.988 331.039 206.572C332.371 208.156 333.415 209.938 334.171 211.918C334.927 213.862 335.377 215.788 335.521 217.696ZM325.477 227.956C326.161 226.876 326.665 225.634 326.989 224.23C327.313 222.826 327.457 221.404 327.421 219.964C327.385 218.488 327.187 217.066 326.827 215.698C326.467 214.294 325.963 213.052 325.315 211.972C324.811 211.18 324.163 210.532 323.371 210.028C322.579 209.524 321.697 209.146 320.725 208.894C319.753 208.606 318.709 208.408 317.593 208.3C316.513 208.192 315.451 208.138 314.407 208.138C314.443 209.182 314.461 210.19 314.461 211.162C314.461 212.134 314.461 213.16 314.461 214.24C314.425 215.536 314.407 216.796 314.407 218.02C314.407 219.244 314.407 220.432 314.407 221.584V232.6C315.523 232.564 316.585 232.51 317.593 232.438C318.637 232.33 319.627 232.114 320.563 231.79C321.535 231.466 322.417 231.016 323.209 230.44C324.037 229.828 324.793 229 325.477 227.956ZM346.774 218.938C346.774 219.946 346.774 221.08 346.774 222.34C346.81 223.6 346.828 224.914 346.828 226.282C346.828 227.614 346.828 228.946 346.828 230.278C346.828 231.574 346.81 232.78 346.774 233.896C346.738 234.436 346.684 235.03 346.612 235.678C346.54 236.29 346.396 236.866 346.18 237.406C345.964 237.946 345.622 238.396 345.154 238.756C344.722 239.08 344.128 239.224 343.372 239.188C342.256 239.116 341.446 238.63 340.942 237.73C340.474 236.83 340.204 235.57 340.132 233.95C340.132 233.122 340.114 232.168 340.078 231.088C340.078 230.008 340.06 228.91 340.024 227.794C340.024 226.678 340.024 225.598 340.024 224.554C340.024 223.474 340.024 222.502 340.024 221.638C340.024 221.134 340.006 220.522 339.97 219.802C339.97 219.082 339.988 218.344 340.024 217.588C340.06 216.832 340.15 216.112 340.294 215.428C340.438 214.708 340.672 214.114 340.996 213.646C341.248 213.358 341.608 213.142 342.076 212.998C342.544 212.818 343.03 212.728 343.534 212.728C344.074 212.728 344.578 212.818 345.046 212.998C345.55 213.178 345.91 213.43 346.126 213.754C346.27 213.97 346.378 214.276 346.45 214.672C346.522 215.068 346.576 215.518 346.612 216.022C346.684 216.49 346.72 216.994 346.72 217.534C346.756 218.038 346.774 218.506 346.774 218.938ZM344.722 208.03C343.606 208.318 342.67 208.21 341.914 207.706C341.194 207.166 340.744 206.374 340.564 205.33C340.42 204.574 340.474 203.908 340.726 203.332C340.978 202.756 341.356 202.324 341.86 202.036C342.364 201.712 342.94 201.568 343.588 201.604C344.236 201.64 344.884 201.892 345.532 202.36C346.144 202.792 346.576 203.296 346.828 203.872C347.116 204.448 347.206 205.006 347.098 205.546C347.026 206.086 346.792 206.59 346.396 207.058C346 207.49 345.442 207.814 344.722 208.03ZM373.929 229.198C373.929 230.35 373.893 231.592 373.821 232.924C373.785 234.256 373.731 235.498 373.659 236.65C373.659 237.73 373.605 238.81 373.497 239.89C373.425 240.826 373.281 241.834 373.065 242.914C372.849 244.03 372.543 245.056 372.147 245.992C371.643 247.216 370.959 248.26 370.095 249.124C369.231 250.024 368.115 250.672 366.747 251.068C365.595 251.356 364.515 251.536 363.507 251.608C362.499 251.716 361.419 251.698 360.267 251.554C359.511 251.446 358.701 251.23 357.837 250.906C356.973 250.618 356.163 250.24 355.407 249.772C354.651 249.304 353.985 248.746 353.409 248.098C352.833 247.486 352.437 246.784 352.221 245.992C351.969 245.02 351.951 244.174 352.167 243.454C352.419 242.734 352.797 242.212 353.301 241.888C353.805 241.564 354.399 241.51 355.083 241.726C355.767 241.942 356.415 242.5 357.027 243.4C357.459 244.048 358.089 244.57 358.917 244.966C359.745 245.362 360.627 245.596 361.563 245.668C362.499 245.74 363.399 245.614 364.263 245.29C365.163 245.002 365.865 244.48 366.369 243.724C366.729 243.184 366.981 242.41 367.125 241.402C367.305 240.394 367.413 239.404 367.449 238.432C365.613 239.188 363.723 239.476 361.779 239.296C359.871 239.08 358.125 238.486 356.541 237.514C354.993 236.506 353.733 235.174 352.761 233.518C351.825 231.826 351.429 229.918 351.573 227.794C351.681 225.958 352.059 224.23 352.707 222.61C353.391 220.99 354.507 219.64 356.055 218.56C357.315 217.696 358.737 217.138 360.321 216.886C361.905 216.598 363.435 216.454 364.911 216.454C365.775 216.454 366.621 216.454 367.449 216.454C368.313 216.454 369.105 216.562 369.825 216.778C370.545 216.994 371.193 217.354 371.769 217.858C372.345 218.362 372.777 219.1 373.065 220.072C373.533 221.584 373.785 223.078 373.821 224.554C373.893 226.03 373.929 227.578 373.929 229.198ZM363.507 233.68C363.867 233.68 364.209 233.644 364.533 233.572C364.893 233.5 365.235 233.41 365.559 233.302C366.171 233.086 366.621 232.798 366.909 232.438C367.233 232.078 367.449 231.682 367.557 231.25C367.665 230.782 367.701 230.278 367.665 229.738C367.665 229.198 367.665 228.64 367.665 228.064C367.665 227.596 367.647 227.074 367.611 226.498C367.611 225.922 367.575 225.382 367.503 224.878C367.431 224.338 367.323 223.87 367.179 223.474C367.035 223.078 366.819 222.826 366.531 222.718C366.027 222.574 365.451 222.484 364.803 222.448C364.155 222.376 363.507 222.376 362.859 222.448C362.211 222.484 361.581 222.61 360.969 222.826C360.393 223.006 359.907 223.258 359.511 223.582C358.971 224.05 358.557 224.626 358.269 225.31C357.981 225.994 357.801 226.714 357.729 227.47C357.693 228.226 357.747 228.964 357.891 229.684C358.071 230.404 358.377 231.052 358.809 231.628C359.313 232.348 359.997 232.87 360.861 233.194C361.725 233.518 362.607 233.68 363.507 233.68ZM385.112 218.938C385.112 219.946 385.112 221.08 385.112 222.34C385.148 223.6 385.166 224.914 385.166 226.282C385.166 227.614 385.166 228.946 385.166 230.278C385.166 231.574 385.148 232.78 385.112 233.896C385.076 234.436 385.022 235.03 384.95 235.678C384.878 236.29 384.734 236.866 384.518 237.406C384.302 237.946 383.96 238.396 383.492 238.756C383.06 239.08 382.466 239.224 381.71 239.188C380.594 239.116 379.784 238.63 379.28 237.73C378.812 236.83 378.542 235.57 378.47 233.95C378.47 233.122 378.452 232.168 378.416 231.088C378.416 230.008 378.398 228.91 378.362 227.794C378.362 226.678 378.362 225.598 378.362 224.554C378.362 223.474 378.362 222.502 378.362 221.638C378.362 221.134 378.344 220.522 378.308 219.802C378.308 219.082 378.326 218.344 378.362 217.588C378.398 216.832 378.488 216.112 378.632 215.428C378.776 214.708 379.01 214.114 379.334 213.646C379.586 213.358 379.946 213.142 380.414 212.998C380.882 212.818 381.368 212.728 381.872 212.728C382.412 212.728 382.916 212.818 383.384 212.998C383.888 213.178 384.248 213.43 384.464 213.754C384.608 213.97 384.716 214.276 384.788 214.672C384.86 215.068 384.914 215.518 384.95 216.022C385.022 216.49 385.058 216.994 385.058 217.534C385.094 218.038 385.112 218.506 385.112 218.938ZM383.06 208.03C381.944 208.318 381.008 208.21 380.252 207.706C379.532 207.166 379.082 206.374 378.902 205.33C378.758 204.574 378.812 203.908 379.064 203.332C379.316 202.756 379.694 202.324 380.198 202.036C380.702 201.712 381.278 201.568 381.926 201.604C382.574 201.64 383.222 201.892 383.87 202.36C384.482 202.792 384.914 203.296 385.166 203.872C385.454 204.448 385.544 205.006 385.436 205.546C385.364 206.086 385.13 206.59 384.734 207.058C384.338 207.49 383.78 207.814 383.06 208.03ZM412.915 215.59C413.203 216.274 413.221 217.03 412.969 217.858C412.753 218.686 412.339 219.226 411.727 219.478C411.403 219.622 410.971 219.748 410.431 219.856C409.891 219.928 409.297 220 408.649 220.072C408.037 220.144 407.425 220.198 406.813 220.234C406.201 220.27 405.679 220.288 405.247 220.288C405.283 221.368 405.319 222.484 405.355 223.636C405.391 224.752 405.427 225.85 405.463 226.93C405.499 228.01 405.517 229.054 405.517 230.062C405.517 231.034 405.499 231.916 405.463 232.708C405.463 233.248 405.463 233.878 405.463 234.598C405.463 235.282 405.409 235.948 405.301 236.596C405.229 237.244 405.103 237.82 404.923 238.324C404.743 238.792 404.473 239.098 404.113 239.242C402.997 239.71 401.971 239.836 401.035 239.62C400.135 239.44 399.487 239.062 399.091 238.486C398.803 238.018 398.587 237.478 398.443 236.866C398.299 236.218 398.191 235.57 398.119 234.922C398.083 234.238 398.065 233.59 398.065 232.978C398.101 232.33 398.119 231.772 398.119 231.304C398.155 229.792 398.173 228.082 398.173 226.174C398.209 224.23 398.227 222.286 398.227 220.342H397.417C396.985 220.342 396.427 220.342 395.743 220.342C395.095 220.306 394.429 220.252 393.745 220.18C393.097 220.072 392.485 219.946 391.909 219.802C391.333 219.622 390.919 219.37 390.667 219.046C390.271 218.578 390.019 218.074 389.911 217.534C389.839 216.994 389.875 216.49 390.019 216.022C390.199 215.518 390.469 215.086 390.829 214.726C391.189 214.33 391.603 214.078 392.071 213.97C392.719 213.79 393.637 213.7 394.825 213.7C396.013 213.664 397.129 213.664 398.173 213.7C398.137 213.34 398.119 212.998 398.119 212.674C398.119 212.314 398.101 211.972 398.065 211.648C398.029 211.216 398.011 210.676 398.011 210.028C398.011 209.344 398.047 208.678 398.119 208.03C398.227 207.346 398.389 206.716 398.605 206.14C398.821 205.528 399.127 205.06 399.523 204.736C400.063 204.304 400.603 204.07 401.143 204.034C401.719 203.962 402.241 204.034 402.709 204.25C403.213 204.466 403.627 204.79 403.951 205.222C404.311 205.618 404.563 206.068 404.707 206.572C404.815 207.004 404.905 207.526 404.977 208.138C405.049 208.714 405.085 209.326 405.085 209.974C405.121 210.622 405.139 211.27 405.139 211.918C405.139 212.566 405.139 213.16 405.139 213.7H405.679C406.219 213.7 406.849 213.682 407.569 213.646C408.289 213.61 408.991 213.628 409.675 213.7C410.395 213.772 411.043 213.952 411.619 214.24C412.195 214.492 412.627 214.942 412.915 215.59ZM421.488 216.67C422.568 216.13 423.702 215.752 424.89 215.536C426.078 215.284 427.248 215.23 428.4 215.374C429.588 215.482 430.722 215.788 431.802 216.292C432.882 216.76 433.89 217.444 434.826 218.344C435.762 219.28 436.482 220.306 436.986 221.422C437.49 222.538 437.85 223.78 438.066 225.148C438.21 226.084 438.444 226.948 438.768 227.74C439.092 228.532 439.434 229.324 439.794 230.116C440.19 230.908 440.55 231.7 440.874 232.492C441.234 233.284 441.522 234.112 441.738 234.976C441.918 235.804 441.846 236.614 441.522 237.406C441.234 238.162 440.622 238.63 439.686 238.81C439.146 238.918 438.624 238.882 438.12 238.702C437.652 238.486 437.22 238.198 436.824 237.838C436.428 237.442 436.068 237.028 435.744 236.596C435.456 236.128 435.186 235.696 434.934 235.3C434.106 236.38 433.206 237.226 432.234 237.838C431.262 238.414 430.092 238.792 428.724 238.972C427.572 239.116 426.474 239.152 425.43 239.08C424.386 239.008 423.27 238.81 422.082 238.486C420.534 238.09 419.256 237.406 418.248 236.434C417.276 235.426 416.52 234.274 415.98 232.978C415.476 231.646 415.206 230.224 415.17 228.712C415.134 227.2 415.314 225.706 415.71 224.23C416.214 222.286 416.97 220.702 417.978 219.478C418.986 218.254 420.156 217.318 421.488 216.67ZM422.838 222.988C422.334 223.492 421.938 224.086 421.65 224.77C421.362 225.454 421.182 226.174 421.11 226.93C421.074 227.686 421.146 228.442 421.326 229.198C421.506 229.954 421.794 230.62 422.19 231.196C422.55 231.7 423.162 232.132 424.026 232.492C424.89 232.816 425.79 233.014 426.726 233.086C427.806 233.158 428.742 232.87 429.534 232.222C430.362 231.574 430.974 230.764 431.37 229.792C431.802 228.784 432 227.722 431.964 226.606C431.928 225.454 431.622 224.41 431.046 223.474C430.614 222.79 430.038 222.286 429.318 221.962C428.634 221.638 427.896 221.476 427.104 221.476C426.312 221.44 425.52 221.566 424.728 221.854C423.972 222.106 423.342 222.484 422.838 222.988ZM453.412 235.084C453.376 235.264 453.34 235.444 453.304 235.624C453.304 235.768 453.304 235.93 453.304 236.11L452.98 237.244C452.908 237.388 452.854 237.478 452.818 237.514L452.656 237.838C452.476 238.234 452.152 238.558 451.684 238.81C450.82 239.242 449.902 239.35 448.93 239.134C448.318 239.062 447.832 238.882 447.472 238.594C447.112 238.342 446.86 238.036 446.716 237.676C446.572 237.316 446.464 236.956 446.392 236.596C446.284 236.236 446.23 235.912 446.23 235.624V205.384C446.23 205.132 446.23 204.916 446.23 204.736C446.266 204.52 446.302 204.322 446.338 204.142C446.374 203.89 446.41 203.674 446.446 203.494C446.518 203.314 446.59 203.116 446.662 202.9C446.77 202.54 446.968 202.252 447.256 202.036C447.688 201.712 448.102 201.532 448.498 201.496C448.75 201.424 448.984 201.388 449.2 201.388C449.416 201.352 449.668 201.334 449.956 201.334C450.46 201.334 451.036 201.478 451.684 201.766C452.188 202.054 452.548 202.45 452.764 202.954C453.124 203.674 453.304 204.34 453.304 204.952C453.34 205.312 453.358 205.852 453.358 206.572C453.394 207.292 453.412 207.832 453.412 208.192V208.408C453.484 209.56 453.52 210.676 453.52 211.756C453.52 212.8 453.502 213.952 453.466 215.212C453.466 216.436 453.448 217.624 453.412 218.776C453.412 219.892 453.412 221.008 453.412 222.124V233.464C453.412 233.608 453.412 233.752 453.412 233.896C453.448 234.004 453.466 234.13 453.466 234.274C453.466 234.634 453.448 234.904 453.412 235.084ZM493.135 219.478C494.179 220.162 495.061 220.972 495.781 221.908C496.537 222.808 497.131 223.924 497.563 225.256C498.031 226.732 498.265 228.226 498.265 229.738C498.301 231.214 498.031 232.6 497.455 233.896C496.915 235.156 496.033 236.272 494.809 237.244C493.621 238.18 492.055 238.846 490.111 239.242C489.067 239.494 487.843 239.692 486.439 239.836C485.035 239.98 483.775 240.052 482.659 240.052C481.255 240.088 479.797 240.088 478.285 240.052C476.809 240.052 475.369 239.908 473.965 239.62C473.353 239.44 472.903 239.134 472.615 238.702C472.363 238.234 472.183 237.712 472.075 237.136C471.931 236.812 471.859 236.488 471.859 236.164V205.492C471.859 204.484 472.057 203.71 472.453 203.17C472.885 202.594 473.443 202.18 474.127 201.928C474.811 201.64 475.585 201.478 476.449 201.442C477.313 201.37 478.213 201.334 479.149 201.334C479.869 201.334 480.589 201.334 481.309 201.334C482.065 201.298 482.821 201.298 483.577 201.334C484.765 201.37 485.989 201.478 487.249 201.658C488.545 201.802 489.769 202.09 490.921 202.522C491.461 202.702 492.037 202.954 492.649 203.278C493.261 203.566 493.747 203.926 494.107 204.358C495.259 205.402 496.105 206.626 496.645 208.03C497.221 209.398 497.473 210.802 497.401 212.242C497.329 213.646 496.933 214.996 496.213 216.292C495.529 217.588 494.503 218.65 493.135 219.478ZM483.685 233.788C484.801 233.716 485.935 233.59 487.087 233.41C488.239 233.23 489.031 232.888 489.463 232.384C489.931 231.808 490.255 231.142 490.435 230.386C490.651 229.594 490.705 228.802 490.597 228.01C490.525 227.182 490.291 226.408 489.895 225.688C489.535 224.932 489.049 224.338 488.437 223.906C487.609 223.258 486.655 222.844 485.575 222.664C484.495 222.448 483.433 222.34 482.389 222.34C481.885 222.34 481.417 222.358 480.985 222.394C480.589 222.394 480.229 222.448 479.905 222.556C479.617 222.628 479.401 222.79 479.257 223.042C479.113 223.294 479.041 223.672 479.041 224.176C479.113 225.112 479.113 226.048 479.041 226.984C478.969 227.92 478.933 228.82 478.933 229.684C478.933 230.188 478.915 230.746 478.879 231.358C478.879 231.934 479.077 232.42 479.473 232.816C479.869 233.212 480.445 233.482 481.201 233.626C481.957 233.77 482.785 233.824 483.685 233.788ZM484.765 207.868C483.649 207.832 482.713 207.814 481.957 207.814C481.237 207.778 480.661 207.832 480.229 207.976C479.833 208.084 479.545 208.354 479.365 208.786C479.221 209.182 479.167 209.794 479.203 210.622C479.203 211.306 479.185 211.99 479.149 212.674C479.149 213.322 479.149 213.97 479.149 214.618C479.149 215.338 479.383 215.878 479.851 216.238C480.319 216.562 480.895 216.76 481.579 216.832C482.299 216.904 483.037 216.904 483.793 216.832C484.585 216.76 485.269 216.67 485.845 216.562C487.141 216.346 488.131 215.914 488.815 215.266C489.535 214.582 489.949 213.592 490.057 212.296C490.201 210.676 489.769 209.56 488.761 208.948C487.789 208.3 486.457 207.94 484.765 207.868ZM522.978 228.766C523.014 229.486 523.032 230.242 523.032 231.034C523.032 231.79 523.014 232.492 522.978 233.14C522.942 234.112 522.888 235.012 522.816 235.84C522.744 236.632 522.6 237.316 522.384 237.892C522.168 238.432 521.826 238.846 521.358 239.134C520.926 239.386 520.314 239.458 519.522 239.35C518.694 239.242 518.1 238.846 517.74 238.162C517.38 237.478 517.128 236.704 516.984 235.84C516.876 234.94 516.84 234.04 516.876 233.14C516.912 232.24 516.912 231.538 516.876 231.034C516.84 230.242 516.804 229.342 516.768 228.334C516.768 227.29 516.66 226.318 516.444 225.418C516.264 224.482 515.94 223.69 515.472 223.042C515.004 222.394 514.302 222.052 513.366 222.016C512.178 221.944 511.26 222.034 510.612 222.286C510 222.538 509.55 222.916 509.262 223.42C508.974 223.888 508.794 224.464 508.722 225.148C508.686 225.832 508.614 226.57 508.506 227.362L508.452 229.468V233.41C508.452 234.058 508.434 234.742 508.398 235.462C508.398 236.146 508.29 236.776 508.074 237.352C507.858 237.928 507.516 238.414 507.048 238.81C506.616 239.206 505.968 239.404 505.104 239.404C504.024 239.404 503.214 239.062 502.674 238.378C502.17 237.658 501.918 236.776 501.918 235.732V204.682C501.918 204.466 501.918 204.268 501.918 204.088C501.954 203.872 501.99 203.656 502.026 203.44C502.098 203.224 502.152 203.026 502.188 202.846C502.224 202.63 502.278 202.432 502.35 202.252C502.458 201.892 502.638 201.622 502.89 201.442C503.07 201.262 503.25 201.118 503.43 201.01C503.61 200.902 503.808 200.83 504.024 200.794C504.204 200.758 504.402 200.74 504.618 200.74C504.834 200.704 505.05 200.686 505.266 200.686C505.806 200.686 506.328 200.848 506.832 201.172C507.048 201.316 507.246 201.478 507.426 201.658C507.606 201.802 507.75 202.018 507.858 202.306C508.146 202.99 508.29 203.638 508.29 204.25C508.326 204.43 508.344 204.7 508.344 205.06C508.38 205.384 508.398 205.726 508.398 206.086C508.398 206.446 508.398 206.806 508.398 207.166C508.434 207.49 508.452 207.742 508.452 207.922V208.192C508.488 209.344 508.506 210.514 508.506 211.702C508.506 212.89 508.506 214.096 508.506 215.32V216.238C510.018 215.734 511.602 215.5 513.258 215.536C514.914 215.536 516.39 215.86 517.686 216.508C519.018 217.192 520.026 217.966 520.71 218.83C521.43 219.694 521.952 220.648 522.276 221.692C522.6 222.736 522.78 223.852 522.816 225.04C522.888 226.228 522.942 227.47 522.978 228.766ZM533.654 216.67C534.734 216.13 535.868 215.752 537.056 215.536C538.244 215.284 539.414 215.23 540.566 215.374C541.754 215.482 542.888 215.788 543.968 216.292C545.048 216.76 546.056 217.444 546.992 218.344C547.928 219.28 548.648 220.306 549.152 221.422C549.656 222.538 550.016 223.78 550.232 225.148C550.376 226.084 550.61 226.948 550.934 227.74C551.258 228.532 551.6 229.324 551.96 230.116C552.356 230.908 552.716 231.7 553.04 232.492C553.4 233.284 553.688 234.112 553.904 234.976C554.084 235.804 554.012 236.614 553.688 237.406C553.4 238.162 552.788 238.63 551.852 238.81C551.312 238.918 550.79 238.882 550.286 238.702C549.818 238.486 549.386 238.198 548.99 237.838C548.594 237.442 548.234 237.028 547.91 236.596C547.622 236.128 547.352 235.696 547.1 235.3C546.272 236.38 545.372 237.226 544.4 237.838C543.428 238.414 542.258 238.792 540.89 238.972C539.738 239.116 538.64 239.152 537.596 239.08C536.552 239.008 535.436 238.81 534.248 238.486C532.7 238.09 531.422 237.406 530.414 236.434C529.442 235.426 528.686 234.274 528.146 232.978C527.642 231.646 527.372 230.224 527.336 228.712C527.3 227.2 527.48 225.706 527.876 224.23C528.38 222.286 529.136 220.702 530.144 219.478C531.152 218.254 532.322 217.318 533.654 216.67ZM535.004 222.988C534.5 223.492 534.104 224.086 533.816 224.77C533.528 225.454 533.348 226.174 533.276 226.93C533.24 227.686 533.312 228.442 533.492 229.198C533.672 229.954 533.96 230.62 534.356 231.196C534.716 231.7 535.328 232.132 536.192 232.492C537.056 232.816 537.956 233.014 538.892 233.086C539.972 233.158 540.908 232.87 541.7 232.222C542.528 231.574 543.14 230.764 543.536 229.792C543.968 228.784 544.166 227.722 544.13 226.606C544.094 225.454 543.788 224.41 543.212 223.474C542.78 222.79 542.204 222.286 541.484 221.962C540.8 221.638 540.062 221.476 539.27 221.476C538.478 221.44 537.686 221.566 536.894 221.854C536.138 222.106 535.508 222.484 535.004 222.988ZM558.45 220.288C558.45 219.856 558.45 219.37 558.45 218.83C558.45 218.254 558.468 217.678 558.504 217.102C558.54 216.49 558.594 215.914 558.666 215.374C558.774 214.798 558.918 214.294 559.098 213.862C559.386 213.214 559.836 212.782 560.448 212.566C561.06 212.314 561.726 212.206 562.446 212.242C563.202 212.242 563.796 212.368 564.228 212.62C564.66 212.872 564.984 213.214 565.2 213.646C565.416 214.042 565.542 214.51 565.578 215.05C565.65 215.554 565.686 216.094 565.686 216.67C566.01 216.094 566.442 215.626 566.982 215.266C567.558 214.906 568.134 214.618 568.71 214.402C569.286 214.186 569.808 214.042 570.276 213.97C570.744 213.862 571.014 213.808 571.086 213.808C571.986 213.736 572.796 213.718 573.516 213.754C574.272 213.79 575.1 213.952 576 214.24C576.576 214.456 577.17 214.762 577.782 215.158C578.394 215.518 578.934 215.95 579.402 216.454C579.87 216.958 580.176 217.516 580.32 218.128C580.5 218.704 580.428 219.316 580.104 219.964C579.6 220.864 579.042 221.314 578.43 221.314C577.818 221.278 577.152 221.17 576.432 220.99C576.036 220.918 575.568 220.756 575.028 220.504C574.488 220.252 574.02 220.09 573.624 220.018C572.4 219.838 571.32 219.928 570.384 220.288C569.448 220.648 568.638 221.08 567.954 221.584C567.162 222.196 566.478 222.898 565.902 223.69V231.466C565.902 232.438 565.884 233.446 565.848 234.49C565.848 235.534 565.704 236.488 565.416 237.352C565.164 238.18 564.714 238.864 564.066 239.404C563.454 239.908 562.554 240.124 561.366 240.052C560.718 240.016 560.142 239.71 559.638 239.134C559.134 238.522 558.828 237.928 558.72 237.352C558.648 236.812 558.594 236.164 558.558 235.408C558.522 234.652 558.486 233.86 558.45 233.032C558.45 232.204 558.45 231.376 558.45 230.548C558.45 229.684 558.45 228.892 558.45 228.172V220.288ZM587.865 216.67C588.945 216.13 590.079 215.752 591.267 215.536C592.455 215.284 593.625 215.23 594.777 215.374C595.965 215.482 597.099 215.788 598.179 216.292C599.259 216.76 600.267 217.444 601.203 218.344C602.139 219.28 602.859 220.306 603.363 221.422C603.867 222.538 604.227 223.78 604.443 225.148C604.587 226.084 604.821 226.948 605.145 227.74C605.469 228.532 605.811 229.324 606.171 230.116C606.567 230.908 606.927 231.7 607.251 232.492C607.611 233.284 607.899 234.112 608.115 234.976C608.295 235.804 608.223 236.614 607.899 237.406C607.611 238.162 606.999 238.63 606.063 238.81C605.523 238.918 605.001 238.882 604.497 238.702C604.029 238.486 603.597 238.198 603.201 237.838C602.805 237.442 602.445 237.028 602.121 236.596C601.833 236.128 601.563 235.696 601.311 235.3C600.483 236.38 599.583 237.226 598.611 237.838C597.639 238.414 596.469 238.792 595.101 238.972C593.949 239.116 592.851 239.152 591.807 239.08C590.763 239.008 589.647 238.81 588.459 238.486C586.911 238.09 585.633 237.406 584.625 236.434C583.653 235.426 582.897 234.274 582.357 232.978C581.853 231.646 581.583 230.224 581.547 228.712C581.511 227.2 581.691 225.706 582.087 224.23C582.591 222.286 583.347 220.702 584.355 219.478C585.363 218.254 586.533 217.318 587.865 216.67ZM589.215 222.988C588.711 223.492 588.315 224.086 588.027 224.77C587.739 225.454 587.559 226.174 587.487 226.93C587.451 227.686 587.523 228.442 587.703 229.198C587.883 229.954 588.171 230.62 588.567 231.196C588.927 231.7 589.539 232.132 590.403 232.492C591.267 232.816 592.167 233.014 593.103 233.086C594.183 233.158 595.119 232.87 595.911 232.222C596.739 231.574 597.351 230.764 597.747 229.792C598.179 228.784 598.377 227.722 598.341 226.606C598.305 225.454 597.999 224.41 597.423 223.474C596.991 222.79 596.415 222.286 595.695 221.962C595.011 221.638 594.273 221.476 593.481 221.476C592.689 221.44 591.897 221.566 591.105 221.854C590.349 222.106 589.719 222.484 589.215 222.988ZM629.284 215.59C629.572 216.274 629.59 217.03 629.338 217.858C629.122 218.686 628.708 219.226 628.096 219.478C627.772 219.622 627.34 219.748 626.8 219.856C626.26 219.928 625.666 220 625.018 220.072C624.406 220.144 623.794 220.198 623.182 220.234C622.57 220.27 622.048 220.288 621.616 220.288C621.652 221.368 621.688 222.484 621.724 223.636C621.76 224.752 621.796 225.85 621.832 226.93C621.868 228.01 621.886 229.054 621.886 230.062C621.886 231.034 621.868 231.916 621.832 232.708C621.832 233.248 621.832 233.878 621.832 234.598C621.832 235.282 621.778 235.948 621.67 236.596C621.598 237.244 621.472 237.82 621.292 238.324C621.112 238.792 620.842 239.098 620.482 239.242C619.366 239.71 618.34 239.836 617.404 239.62C616.504 239.44 615.856 239.062 615.46 238.486C615.172 238.018 614.956 237.478 614.812 236.866C614.668 236.218 614.56 235.57 614.488 234.922C614.452 234.238 614.434 233.59 614.434 232.978C614.47 232.33 614.488 231.772 614.488 231.304C614.524 229.792 614.542 228.082 614.542 226.174C614.578 224.23 614.596 222.286 614.596 220.342H613.786C613.354 220.342 612.796 220.342 612.112 220.342C611.464 220.306 610.798 220.252 610.114 220.18C609.466 220.072 608.854 219.946 608.278 219.802C607.702 219.622 607.288 219.37 607.036 219.046C606.64 218.578 606.388 218.074 606.28 217.534C606.208 216.994 606.244 216.49 606.388 216.022C606.568 215.518 606.838 215.086 607.198 214.726C607.558 214.33 607.972 214.078 608.44 213.97C609.088 213.79 610.006 213.7 611.194 213.7C612.382 213.664 613.498 213.664 614.542 213.7C614.506 213.34 614.488 212.998 614.488 212.674C614.488 212.314 614.47 211.972 614.434 211.648C614.398 211.216 614.38 210.676 614.38 210.028C614.38 209.344 614.416 208.678 614.488 208.03C614.596 207.346 614.758 206.716 614.974 206.14C615.19 205.528 615.496 205.06 615.892 204.736C616.432 204.304 616.972 204.07 617.512 204.034C618.088 203.962 618.61 204.034 619.078 204.25C619.582 204.466 619.996 204.79 620.32 205.222C620.68 205.618 620.932 206.068 621.076 206.572C621.184 207.004 621.274 207.526 621.346 208.138C621.418 208.714 621.454 209.326 621.454 209.974C621.49 210.622 621.508 211.27 621.508 211.918C621.508 212.566 621.508 213.16 621.508 213.7H622.048C622.588 213.7 623.218 213.682 623.938 213.646C624.658 213.61 625.36 213.628 626.044 213.7C626.764 213.772 627.412 213.952 627.988 214.24C628.564 214.492 628.996 214.942 629.284 215.59ZM676.29 217.696C676.362 218.884 676.344 220.108 676.236 221.368C676.164 222.628 676.038 223.852 675.858 225.04C675.498 227.092 674.832 229.09 673.86 231.034C672.888 232.978 671.466 234.634 669.594 236.002C667.65 237.442 665.436 238.432 662.952 238.972C660.468 239.476 658.002 239.782 655.554 239.89C654.726 239.962 653.88 239.98 653.016 239.944C652.188 239.944 651.378 239.854 650.586 239.674C649.938 239.566 649.452 239.368 649.128 239.08C648.948 238.972 648.804 238.828 648.696 238.648C648.588 238.468 648.498 238.288 648.426 238.108C648.318 237.928 648.228 237.748 648.156 237.568C648.12 237.352 648.066 237.136 647.994 236.92C647.958 236.74 647.922 236.578 647.886 236.434C647.886 236.254 647.886 236.092 647.886 235.948V205.114C647.886 204.862 647.886 204.628 647.886 204.412C647.886 204.196 647.922 203.98 647.994 203.764C648.066 203.26 648.174 202.846 648.318 202.522C648.462 202.09 648.66 201.784 648.912 201.604C649.128 201.424 649.344 201.298 649.56 201.226C649.776 201.118 649.974 201.028 650.154 200.956C650.37 200.884 650.586 200.884 650.802 200.956C651.054 200.992 651.324 200.938 651.612 200.794L660.63 201.01C663.006 201.082 665.13 201.64 667.002 202.684C668.874 203.692 670.476 204.988 671.808 206.572C673.14 208.156 674.184 209.938 674.94 211.918C675.696 213.862 676.146 215.788 676.29 217.696ZM666.246 227.956C666.93 226.876 667.434 225.634 667.758 224.23C668.082 222.826 668.226 221.404 668.19 219.964C668.154 218.488 667.956 217.066 667.596 215.698C667.236 214.294 666.732 213.052 666.084 211.972C665.58 211.18 664.932 210.532 664.14 210.028C663.348 209.524 662.466 209.146 661.494 208.894C660.522 208.606 659.478 208.408 658.362 208.3C657.282 208.192 656.22 208.138 655.176 208.138C655.212 209.182 655.23 210.19 655.23 211.162C655.23 212.134 655.23 213.16 655.23 214.24C655.194 215.536 655.176 216.796 655.176 218.02C655.176 219.244 655.176 220.432 655.176 221.584V232.6C656.292 232.564 657.354 232.51 658.362 232.438C659.406 232.33 660.396 232.114 661.332 231.79C662.304 231.466 663.186 231.016 663.978 230.44C664.806 229.828 665.562 229 666.246 227.956ZM687.544 218.938C687.544 219.946 687.544 221.08 687.544 222.34C687.58 223.6 687.598 224.914 687.598 226.282C687.598 227.614 687.598 228.946 687.598 230.278C687.598 231.574 687.58 232.78 687.544 233.896C687.508 234.436 687.454 235.03 687.382 235.678C687.31 236.29 687.166 236.866 686.95 237.406C686.734 237.946 686.392 238.396 685.924 238.756C685.492 239.08 684.898 239.224 684.142 239.188C683.026 239.116 682.216 238.63 681.712 237.73C681.244 236.83 680.974 235.57 680.902 233.95C680.902 233.122 680.884 232.168 680.848 231.088C680.848 230.008 680.83 228.91 680.794 227.794C680.794 226.678 680.794 225.598 680.794 224.554C680.794 223.474 680.794 222.502 680.794 221.638C680.794 221.134 680.776 220.522 680.74 219.802C680.74 219.082 680.758 218.344 680.794 217.588C680.83 216.832 680.92 216.112 681.064 215.428C681.208 214.708 681.442 214.114 681.766 213.646C682.018 213.358 682.378 213.142 682.846 212.998C683.314 212.818 683.8 212.728 684.304 212.728C684.844 212.728 685.348 212.818 685.816 212.998C686.32 213.178 686.68 213.43 686.896 213.754C687.04 213.97 687.148 214.276 687.22 214.672C687.292 215.068 687.346 215.518 687.382 216.022C687.454 216.49 687.49 216.994 687.49 217.534C687.526 218.038 687.544 218.506 687.544 218.938ZM685.492 208.03C684.376 208.318 683.44 208.21 682.684 207.706C681.964 207.166 681.514 206.374 681.334 205.33C681.19 204.574 681.244 203.908 681.496 203.332C681.748 202.756 682.126 202.324 682.63 202.036C683.134 201.712 683.71 201.568 684.358 201.604C685.006 201.64 685.654 201.892 686.302 202.36C686.914 202.792 687.346 203.296 687.598 203.872C687.886 204.448 687.976 205.006 687.868 205.546C687.796 206.086 687.562 206.59 687.166 207.058C686.77 207.49 686.212 207.814 685.492 208.03ZM714.699 229.198C714.699 230.35 714.663 231.592 714.591 232.924C714.555 234.256 714.501 235.498 714.429 236.65C714.429 237.73 714.375 238.81 714.267 239.89C714.195 240.826 714.051 241.834 713.835 242.914C713.619 244.03 713.313 245.056 712.917 245.992C712.413 247.216 711.729 248.26 710.865 249.124C710.001 250.024 708.885 250.672 707.517 251.068C706.365 251.356 705.285 251.536 704.277 251.608C703.269 251.716 702.189 251.698 701.037 251.554C700.281 251.446 699.471 251.23 698.607 250.906C697.743 250.618 696.933 250.24 696.177 249.772C695.421 249.304 694.755 248.746 694.179 248.098C693.603 247.486 693.207 246.784 692.991 245.992C692.739 245.02 692.721 244.174 692.937 243.454C693.189 242.734 693.567 242.212 694.071 241.888C694.575 241.564 695.169 241.51 695.853 241.726C696.537 241.942 697.185 242.5 697.797 243.4C698.229 244.048 698.859 244.57 699.687 244.966C700.515 245.362 701.397 245.596 702.333 245.668C703.269 245.74 704.169 245.614 705.033 245.29C705.933 245.002 706.635 244.48 707.139 243.724C707.499 243.184 707.751 242.41 707.895 241.402C708.075 240.394 708.183 239.404 708.219 238.432C706.383 239.188 704.493 239.476 702.549 239.296C700.641 239.08 698.895 238.486 697.311 237.514C695.763 236.506 694.503 235.174 693.531 233.518C692.595 231.826 692.199 229.918 692.343 227.794C692.451 225.958 692.829 224.23 693.477 222.61C694.161 220.99 695.277 219.64 696.825 218.56C698.085 217.696 699.507 217.138 701.091 216.886C702.675 216.598 704.205 216.454 705.681 216.454C706.545 216.454 707.391 216.454 708.219 216.454C709.083 216.454 709.875 216.562 710.595 216.778C711.315 216.994 711.963 217.354 712.539 217.858C713.115 218.362 713.547 219.1 713.835 220.072C714.303 221.584 714.555 223.078 714.591 224.554C714.663 226.03 714.699 227.578 714.699 229.198ZM704.277 233.68C704.637 233.68 704.979 233.644 705.303 233.572C705.663 233.5 706.005 233.41 706.329 233.302C706.941 233.086 707.391 232.798 707.679 232.438C708.003 232.078 708.219 231.682 708.327 231.25C708.435 230.782 708.471 230.278 708.435 229.738C708.435 229.198 708.435 228.64 708.435 228.064C708.435 227.596 708.417 227.074 708.381 226.498C708.381 225.922 708.345 225.382 708.273 224.878C708.201 224.338 708.093 223.87 707.949 223.474C707.805 223.078 707.589 222.826 707.301 222.718C706.797 222.574 706.221 222.484 705.573 222.448C704.925 222.376 704.277 222.376 703.629 222.448C702.981 222.484 702.351 222.61 701.739 222.826C701.163 223.006 700.677 223.258 700.281 223.582C699.741 224.05 699.327 224.626 699.039 225.31C698.751 225.994 698.571 226.714 698.499 227.47C698.463 228.226 698.517 228.964 698.661 229.684C698.841 230.404 699.147 231.052 699.579 231.628C700.083 232.348 700.767 232.87 701.631 233.194C702.495 233.518 703.377 233.68 704.277 233.68ZM725.882 218.938C725.882 219.946 725.882 221.08 725.882 222.34C725.918 223.6 725.936 224.914 725.936 226.282C725.936 227.614 725.936 228.946 725.936 230.278C725.936 231.574 725.918 232.78 725.882 233.896C725.846 234.436 725.792 235.03 725.72 235.678C725.648 236.29 725.504 236.866 725.288 237.406C725.072 237.946 724.73 238.396 724.262 238.756C723.83 239.08 723.236 239.224 722.48 239.188C721.364 239.116 720.554 238.63 720.05 237.73C719.582 236.83 719.312 235.57 719.24 233.95C719.24 233.122 719.222 232.168 719.186 231.088C719.186 230.008 719.168 228.91 719.132 227.794C719.132 226.678 719.132 225.598 719.132 224.554C719.132 223.474 719.132 222.502 719.132 221.638C719.132 221.134 719.114 220.522 719.078 219.802C719.078 219.082 719.096 218.344 719.132 217.588C719.168 216.832 719.258 216.112 719.402 215.428C719.546 214.708 719.78 214.114 720.104 213.646C720.356 213.358 720.716 213.142 721.184 212.998C721.652 212.818 722.138 212.728 722.642 212.728C723.182 212.728 723.686 212.818 724.154 212.998C724.658 213.178 725.018 213.43 725.234 213.754C725.378 213.97 725.486 214.276 725.558 214.672C725.63 215.068 725.684 215.518 725.72 216.022C725.792 216.49 725.828 216.994 725.828 217.534C725.864 218.038 725.882 218.506 725.882 218.938ZM723.83 208.03C722.714 208.318 721.778 208.21 721.022 207.706C720.302 207.166 719.852 206.374 719.672 205.33C719.528 204.574 719.582 203.908 719.834 203.332C720.086 202.756 720.464 202.324 720.968 202.036C721.472 201.712 722.048 201.568 722.696 201.604C723.344 201.64 723.992 201.892 724.64 202.36C725.252 202.792 725.684 203.296 725.936 203.872C726.224 204.448 726.314 205.006 726.206 205.546C726.134 206.086 725.9 206.59 725.504 207.058C725.108 207.49 724.55 207.814 723.83 208.03ZM753.685 215.59C753.973 216.274 753.991 217.03 753.739 217.858C753.523 218.686 753.109 219.226 752.497 219.478C752.173 219.622 751.741 219.748 751.201 219.856C750.661 219.928 750.067 220 749.419 220.072C748.807 220.144 748.195 220.198 747.583 220.234C746.971 220.27 746.449 220.288 746.017 220.288C746.053 221.368 746.089 222.484 746.125 223.636C746.161 224.752 746.197 225.85 746.233 226.93C746.269 228.01 746.287 229.054 746.287 230.062C746.287 231.034 746.269 231.916 746.233 232.708C746.233 233.248 746.233 233.878 746.233 234.598C746.233 235.282 746.179 235.948 746.071 236.596C745.999 237.244 745.873 237.82 745.693 238.324C745.513 238.792 745.243 239.098 744.883 239.242C743.767 239.71 742.741 239.836 741.805 239.62C740.905 239.44 740.257 239.062 739.861 238.486C739.573 238.018 739.357 237.478 739.213 236.866C739.069 236.218 738.961 235.57 738.889 234.922C738.853 234.238 738.835 233.59 738.835 232.978C738.871 232.33 738.889 231.772 738.889 231.304C738.925 229.792 738.943 228.082 738.943 226.174C738.979 224.23 738.997 222.286 738.997 220.342H738.187C737.755 220.342 737.197 220.342 736.513 220.342C735.865 220.306 735.199 220.252 734.515 220.18C733.867 220.072 733.255 219.946 732.679 219.802C732.103 219.622 731.689 219.37 731.437 219.046C731.041 218.578 730.789 218.074 730.681 217.534C730.609 216.994 730.645 216.49 730.789 216.022C730.969 215.518 731.239 215.086 731.599 214.726C731.959 214.33 732.373 214.078 732.841 213.97C733.489 213.79 734.407 213.7 735.595 213.7C736.783 213.664 737.899 213.664 738.943 213.7C738.907 213.34 738.889 212.998 738.889 212.674C738.889 212.314 738.871 211.972 738.835 211.648C738.799 211.216 738.781 210.676 738.781 210.028C738.781 209.344 738.817 208.678 738.889 208.03C738.997 207.346 739.159 206.716 739.375 206.14C739.591 205.528 739.897 205.06 740.293 204.736C740.833 204.304 741.373 204.07 741.913 204.034C742.489 203.962 743.011 204.034 743.479 204.25C743.983 204.466 744.397 204.79 744.721 205.222C745.081 205.618 745.333 206.068 745.477 206.572C745.585 207.004 745.675 207.526 745.747 208.138C745.819 208.714 745.855 209.326 745.855 209.974C745.891 210.622 745.909 211.27 745.909 211.918C745.909 212.566 745.909 213.16 745.909 213.7H746.449C746.989 213.7 747.619 213.682 748.339 213.646C749.059 213.61 749.761 213.628 750.445 213.7C751.165 213.772 751.813 213.952 752.389 214.24C752.965 214.492 753.397 214.942 753.685 215.59ZM762.257 216.67C763.337 216.13 764.471 215.752 765.659 215.536C766.847 215.284 768.017 215.23 769.169 215.374C770.357 215.482 771.491 215.788 772.571 216.292C773.651 216.76 774.659 217.444 775.595 218.344C776.531 219.28 777.251 220.306 777.755 221.422C778.259 222.538 778.619 223.78 778.835 225.148C778.979 226.084 779.213 226.948 779.537 227.74C779.861 228.532 780.203 229.324 780.563 230.116C780.959 230.908 781.319 231.7 781.643 232.492C782.003 233.284 782.291 234.112 782.507 234.976C782.687 235.804 782.615 236.614 782.291 237.406C782.003 238.162 781.391 238.63 780.455 238.81C779.915 238.918 779.393 238.882 778.889 238.702C778.421 238.486 777.989 238.198 777.593 237.838C777.197 237.442 776.837 237.028 776.513 236.596C776.225 236.128 775.955 235.696 775.703 235.3C774.875 236.38 773.975 237.226 773.003 237.838C772.031 238.414 770.861 238.792 769.493 238.972C768.341 239.116 767.243 239.152 766.199 239.08C765.155 239.008 764.039 238.81 762.851 238.486C761.303 238.09 760.025 237.406 759.017 236.434C758.045 235.426 757.289 234.274 756.749 232.978C756.245 231.646 755.975 230.224 755.939 228.712C755.903 227.2 756.083 225.706 756.479 224.23C756.983 222.286 757.739 220.702 758.747 219.478C759.755 218.254 760.925 217.318 762.257 216.67ZM763.607 222.988C763.103 223.492 762.707 224.086 762.419 224.77C762.131 225.454 761.951 226.174 761.879 226.93C761.843 227.686 761.915 228.442 762.095 229.198C762.275 229.954 762.563 230.62 762.959 231.196C763.319 231.7 763.931 232.132 764.795 232.492C765.659 232.816 766.559 233.014 767.495 233.086C768.575 233.158 769.511 232.87 770.303 232.222C771.131 231.574 771.743 230.764 772.139 229.792C772.571 228.784 772.769 227.722 772.733 226.606C772.697 225.454 772.391 224.41 771.815 223.474C771.383 222.79 770.807 222.286 770.087 221.962C769.403 221.638 768.665 221.476 767.873 221.476C767.081 221.44 766.289 221.566 765.497 221.854C764.741 222.106 764.111 222.484 763.607 222.988ZM794.182 235.084C794.146 235.264 794.11 235.444 794.074 235.624C794.074 235.768 794.074 235.93 794.074 236.11L793.75 237.244C793.678 237.388 793.624 237.478 793.588 237.514L793.426 237.838C793.246 238.234 792.922 238.558 792.454 238.81C791.59 239.242 790.672 239.35 789.7 239.134C789.088 239.062 788.602 238.882 788.242 238.594C787.882 238.342 787.63 238.036 787.486 237.676C787.342 237.316 787.234 236.956 787.162 236.596C787.054 236.236 787 235.912 787 235.624V205.384C787 205.132 787 204.916 787 204.736C787.036 204.52 787.072 204.322 787.108 204.142C787.144 203.89 787.18 203.674 787.216 203.494C787.288 203.314 787.36 203.116 787.432 202.9C787.54 202.54 787.738 202.252 788.026 202.036C788.458 201.712 788.872 201.532 789.268 201.496C789.52 201.424 789.754 201.388 789.97 201.388C790.186 201.352 790.438 201.334 790.726 201.334C791.23 201.334 791.806 201.478 792.454 201.766C792.958 202.054 793.318 202.45 793.534 202.954C793.894 203.674 794.074 204.34 794.074 204.952C794.11 205.312 794.128 205.852 794.128 206.572C794.164 207.292 794.182 207.832 794.182 208.192V208.408C794.254 209.56 794.29 210.676 794.29 211.756C794.29 212.8 794.272 213.952 794.236 215.212C794.236 216.436 794.218 217.624 794.182 218.776C794.182 219.892 794.182 221.008 794.182 222.124V233.464C794.182 233.608 794.182 233.752 794.182 233.896C794.218 234.004 794.236 234.13 794.236 234.274C794.236 234.634 794.218 234.904 794.182 235.084ZM838.765 235.516C839.053 236.056 839.071 236.596 838.819 237.136C838.639 237.712 838.333 238.144 837.901 238.432C837.685 238.612 837.487 238.774 837.307 238.918C837.127 239.026 836.929 239.116 836.713 239.188C836.317 239.404 835.849 239.476 835.309 239.404C835.093 239.404 834.895 239.368 834.715 239.296C834.535 239.224 834.355 239.134 834.175 239.026C833.995 238.918 833.797 238.81 833.581 238.702C833.401 238.558 833.221 238.414 833.041 238.27C832.825 238.09 832.627 237.928 832.447 237.784C832.267 237.64 832.105 237.478 831.961 237.298C831.781 237.118 831.619 236.938 831.475 236.758C831.331 236.578 831.187 236.416 831.043 236.272L830.395 235.57L820.027 224.716L820.189 235.57V236.056C820.189 236.2 820.171 236.362 820.135 236.542C820.099 236.686 820.063 236.848 820.027 237.028C819.919 237.496 819.793 237.91 819.649 238.27C819.577 238.486 819.469 238.666 819.325 238.81C819.217 238.954 819.091 239.098 818.947 239.242C818.551 239.602 818.083 239.8 817.543 239.836C817.003 240.016 816.499 240.07 816.031 239.998C815.599 239.962 815.149 239.836 814.681 239.62C814.321 239.404 813.997 239.044 813.709 238.54C813.637 238.396 813.583 238.306 813.547 238.27C813.547 238.234 813.511 238.108 813.439 237.892C813.223 237.532 813.115 237.172 813.115 236.812C813.079 236.596 813.043 236.398 813.007 236.218C813.007 236.038 812.989 235.84 812.953 235.624C812.917 235.48 812.899 235.336 812.899 235.192C812.899 235.048 812.899 234.904 812.899 234.76C812.935 234.58 812.953 234.436 812.953 234.328C812.953 234.184 812.953 234.022 812.953 233.842L812.899 229.576L812.845 221.638C812.845 219.334 812.791 216.85 812.683 214.186C812.647 212.89 812.629 211.738 812.629 210.73C812.629 209.722 812.647 208.588 812.683 207.328V207.112C812.755 206.716 812.791 206.338 812.791 205.978C812.791 205.582 812.809 205.204 812.845 204.844C812.845 204.124 813.007 203.404 813.331 202.684C813.547 202.144 813.925 201.712 814.465 201.388C814.753 201.208 815.023 201.1 815.275 201.064C815.563 200.992 815.869 200.92 816.193 200.848C816.445 200.848 816.679 200.866 816.895 200.902C817.147 200.938 817.381 200.974 817.597 201.01C818.065 201.082 818.497 201.28 818.893 201.604C819.001 201.712 819.091 201.838 819.163 201.982C819.271 202.126 819.361 202.306 819.433 202.522C819.613 202.81 819.739 203.224 819.811 203.764C819.847 203.98 819.865 204.196 819.865 204.412C819.901 204.628 819.919 204.862 819.919 205.114V207.328L819.973 213.916C820.549 213.412 821.107 212.89 821.647 212.35C822.223 211.81 822.781 211.234 823.321 210.622C824.293 209.614 825.247 208.642 826.183 207.706C827.155 206.734 828.127 205.78 829.099 204.844L829.261 204.682C829.549 204.394 829.837 204.124 830.125 203.872C830.449 203.584 830.755 203.314 831.043 203.062C831.583 202.45 832.249 202.018 833.041 201.766C833.545 201.442 834.139 201.316 834.823 201.388C835.147 201.424 835.435 201.496 835.687 201.604C835.975 201.712 836.245 201.856 836.497 202.036C836.677 202.216 836.857 202.378 837.037 202.522C837.217 202.63 837.361 202.774 837.469 202.954C837.757 203.206 837.937 203.584 838.009 204.088C838.009 204.484 837.937 204.844 837.793 205.168C837.685 205.348 837.577 205.528 837.469 205.708C837.361 205.888 837.235 206.068 837.091 206.248C836.911 206.464 836.749 206.662 836.605 206.842C836.461 207.022 836.299 207.202 836.119 207.382C835.975 207.562 835.813 207.724 835.633 207.868C835.489 208.012 835.345 208.174 835.201 208.354L834.499 209.056L824.401 219.37C824.941 219.91 825.499 220.486 826.075 221.098C826.687 221.674 827.263 222.25 827.803 222.826C828.343 223.366 828.847 223.888 829.315 224.392C829.783 224.86 830.179 225.256 830.503 225.58C831.475 226.588 832.411 227.596 833.311 228.604C834.211 229.576 835.093 230.566 835.957 231.574L836.119 231.736C836.407 232.024 836.677 232.33 836.929 232.654C837.181 232.942 837.415 233.23 837.631 233.518C838.171 234.13 838.549 234.796 838.765 235.516ZM850.177 218.938C850.177 219.946 850.177 221.08 850.177 222.34C850.213 223.6 850.231 224.914 850.231 226.282C850.231 227.614 850.231 228.946 850.231 230.278C850.231 231.574 850.213 232.78 850.177 233.896C850.141 234.436 850.087 235.03 850.015 235.678C849.943 236.29 849.799 236.866 849.583 237.406C849.367 237.946 849.025 238.396 848.557 238.756C848.125 239.08 847.531 239.224 846.775 239.188C845.659 239.116 844.849 238.63 844.345 237.73C843.877 236.83 843.607 235.57 843.535 233.95C843.535 233.122 843.517 232.168 843.481 231.088C843.481 230.008 843.463 228.91 843.427 227.794C843.427 226.678 843.427 225.598 843.427 224.554C843.427 223.474 843.427 222.502 843.427 221.638C843.427 221.134 843.409 220.522 843.373 219.802C843.373 219.082 843.391 218.344 843.427 217.588C843.463 216.832 843.553 216.112 843.697 215.428C843.841 214.708 844.075 214.114 844.399 213.646C844.651 213.358 845.011 213.142 845.479 212.998C845.947 212.818 846.433 212.728 846.937 212.728C847.477 212.728 847.981 212.818 848.449 212.998C848.953 213.178 849.313 213.43 849.529 213.754C849.673 213.97 849.781 214.276 849.853 214.672C849.925 215.068 849.979 215.518 850.015 216.022C850.087 216.49 850.123 216.994 850.123 217.534C850.159 218.038 850.177 218.506 850.177 218.938ZM848.125 208.03C847.009 208.318 846.073 208.21 845.317 207.706C844.597 207.166 844.147 206.374 843.967 205.33C843.823 204.574 843.877 203.908 844.129 203.332C844.381 202.756 844.759 202.324 845.263 202.036C845.767 201.712 846.343 201.568 846.991 201.604C847.639 201.64 848.287 201.892 848.935 202.36C849.547 202.792 849.979 203.296 850.231 203.872C850.519 204.448 850.609 205.006 850.501 205.546C850.429 206.086 850.195 206.59 849.799 207.058C849.403 207.49 848.845 207.814 848.125 208.03ZM867.828 229.9C867.144 229.468 866.37 229.126 865.506 228.874C864.678 228.622 863.814 228.388 862.914 228.172C862.05 227.956 861.204 227.722 860.376 227.47C859.548 227.182 858.792 226.786 858.108 226.282C856.632 225.166 855.768 223.798 855.516 222.178C855.3 220.522 855.66 218.866 856.596 217.21C857.1 216.346 857.766 215.644 858.594 215.104C859.422 214.528 860.322 214.096 861.294 213.808C862.302 213.484 863.328 213.304 864.372 213.268C865.416 213.232 866.406 213.286 867.342 213.43C867.954 213.538 868.602 213.7 869.286 213.916C869.97 214.096 870.6 214.348 871.176 214.672C871.788 214.996 872.328 215.41 872.796 215.914C873.3 216.382 873.66 216.976 873.876 217.696C874.02 218.164 874.038 218.614 873.93 219.046C873.858 219.478 873.678 219.838 873.39 220.126C873.138 220.414 872.796 220.63 872.364 220.774C871.968 220.918 871.536 220.954 871.068 220.882C870.528 220.774 870.024 220.612 869.556 220.396C869.088 220.18 868.62 219.946 868.152 219.694C867.684 219.442 867.198 219.226 866.694 219.046C866.226 218.866 865.722 218.776 865.182 218.776C864.354 218.74 863.67 218.884 863.13 219.208C862.59 219.532 862.212 219.928 861.996 220.396C861.816 220.864 861.834 221.368 862.05 221.908C862.302 222.448 862.806 222.916 863.562 223.312C864.246 223.672 865.002 223.96 865.83 224.176C866.658 224.392 867.468 224.608 868.26 224.824C869.088 225.04 869.88 225.292 870.636 225.58C871.428 225.868 872.13 226.264 872.742 226.768C873.93 227.74 874.65 228.874 874.902 230.17C875.19 231.466 875.118 232.744 874.686 234.004C874.254 235.264 873.498 236.38 872.418 237.352C871.374 238.324 870.132 238.972 868.692 239.296C867.648 239.512 866.514 239.62 865.29 239.62C864.102 239.62 862.914 239.494 861.726 239.242C860.574 238.99 859.458 238.594 858.378 238.054C857.334 237.514 856.452 236.83 855.732 236.002C855.228 235.426 854.958 234.778 854.922 234.058C854.922 233.302 855.066 232.654 855.354 232.114C855.678 231.538 856.128 231.142 856.704 230.926C857.28 230.71 857.928 230.836 858.648 231.304C859.224 231.7 859.908 232.096 860.7 232.492C861.492 232.852 862.284 233.14 863.076 233.356C863.868 233.572 864.624 233.68 865.344 233.68C866.1 233.68 866.748 233.518 867.288 233.194C868.08 232.69 868.494 232.114 868.53 231.466C868.566 230.782 868.332 230.26 867.828 229.9ZM885.761 216.67C886.841 216.13 887.975 215.752 889.163 215.536C890.351 215.284 891.521 215.23 892.673 215.374C893.861 215.482 894.995 215.788 896.075 216.292C897.155 216.76 898.163 217.444 899.099 218.344C900.035 219.28 900.755 220.306 901.259 221.422C901.763 222.538 902.123 223.78 902.339 225.148C902.483 226.084 902.717 226.948 903.041 227.74C903.365 228.532 903.707 229.324 904.067 230.116C904.463 230.908 904.823 231.7 905.147 232.492C905.507 233.284 905.795 234.112 906.011 234.976C906.191 235.804 906.119 236.614 905.795 237.406C905.507 238.162 904.895 238.63 903.959 238.81C903.419 238.918 902.897 238.882 902.393 238.702C901.925 238.486 901.493 238.198 901.097 237.838C900.701 237.442 900.341 237.028 900.017 236.596C899.729 236.128 899.459 235.696 899.207 235.3C898.379 236.38 897.479 237.226 896.507 237.838C895.535 238.414 894.365 238.792 892.997 238.972C891.845 239.116 890.747 239.152 889.703 239.08C888.659 239.008 887.543 238.81 886.355 238.486C884.807 238.09 883.529 237.406 882.521 236.434C881.549 235.426 880.793 234.274 880.253 232.978C879.749 231.646 879.479 230.224 879.443 228.712C879.407 227.2 879.587 225.706 879.983 224.23C880.487 222.286 881.243 220.702 882.251 219.478C883.259 218.254 884.429 217.318 885.761 216.67ZM887.111 222.988C886.607 223.492 886.211 224.086 885.923 224.77C885.635 225.454 885.455 226.174 885.383 226.93C885.347 227.686 885.419 228.442 885.599 229.198C885.779 229.954 886.067 230.62 886.463 231.196C886.823 231.7 887.435 232.132 888.299 232.492C889.163 232.816 890.063 233.014 890.999 233.086C892.079 233.158 893.015 232.87 893.807 232.222C894.635 231.574 895.247 230.764 895.643 229.792C896.075 228.784 896.273 227.722 896.237 226.606C896.201 225.454 895.895 224.41 895.319 223.474C894.887 222.79 894.311 222.286 893.591 221.962C892.907 221.638 892.169 221.476 891.377 221.476C890.585 221.44 889.793 221.566 889.001 221.854C888.245 222.106 887.615 222.484 887.111 222.988ZM910.558 220.126C910.558 219.298 910.54 218.416 910.504 217.48C910.504 216.544 910.666 215.698 910.99 214.942C911.278 214.258 911.746 213.772 912.394 213.484C913.078 213.16 913.744 213.088 914.392 213.268C915.04 213.376 915.544 213.574 915.904 213.862C916.264 214.15 916.516 214.492 916.66 214.888C916.84 215.248 916.948 215.68 916.984 216.184C917.02 216.652 917.056 217.12 917.092 217.588C917.452 216.94 917.902 216.418 918.442 216.022C918.982 215.626 919.54 215.302 920.116 215.05C920.692 214.798 921.232 214.618 921.736 214.51C922.276 214.402 922.69 214.348 922.978 214.348C924.346 214.348 925.696 214.654 927.028 215.266C928.396 215.842 929.53 216.67 930.43 217.75C930.934 218.398 931.312 219.082 931.564 219.802C931.852 220.486 932.05 221.206 932.158 221.962C932.302 222.718 932.392 223.492 932.428 224.284C932.464 225.04 932.5 225.814 932.536 226.606C932.716 228.91 932.716 231.196 932.536 233.464C932.5 233.932 932.482 234.472 932.482 235.084C932.482 235.696 932.428 236.308 932.32 236.92C932.248 237.496 932.086 238.018 931.834 238.486C931.618 238.918 931.24 239.188 930.7 239.296C929.944 239.476 929.314 239.512 928.81 239.404C928.342 239.332 927.964 239.17 927.676 238.918C927.388 238.666 927.172 238.342 927.028 237.946C926.884 237.55 926.758 237.1 926.65 236.596C926.578 236.2 926.506 235.75 926.434 235.246C926.398 234.706 926.362 234.166 926.326 233.626C926.326 233.086 926.308 232.564 926.272 232.06C926.272 231.52 926.272 231.034 926.272 230.602C926.272 229.918 926.254 229.162 926.218 228.334C926.182 227.506 926.182 226.732 926.218 226.012C926.218 224.32 925.768 223.042 924.868 222.178C924.004 221.278 922.816 220.9 921.304 221.044C920.152 221.188 919.144 221.656 918.28 222.448C917.416 223.204 917.002 224.194 917.038 225.418C917.038 225.886 917.038 226.318 917.038 226.714C917.038 227.11 917.02 227.506 916.984 227.902C916.984 228.298 916.984 228.73 916.984 229.198C916.984 229.666 916.984 230.188 916.984 230.764C916.984 231.952 916.984 233.212 916.984 234.544C916.984 235.84 916.822 236.902 916.498 237.73C916.21 238.594 915.724 239.188 915.04 239.512C914.356 239.836 913.546 239.746 912.61 239.242C912.214 239.026 911.89 238.738 911.638 238.378C911.422 237.982 911.242 237.568 911.098 237.136C910.99 236.704 910.918 236.272 910.882 235.84C910.846 235.372 910.81 234.94 910.774 234.544C910.666 233.356 910.594 232.258 910.558 231.25C910.558 230.206 910.558 229.09 910.558 227.902V220.126Z" fill="url(#paint0_linear_1_3)"/>
<g clip-path="url(#clip5_1_3)">
<g clip-path="url(#clip6_1_3)">
<path d="M302.213 291.761H234.347C232.488 283.084 224.741 276.267 215.444 276.267C213.275 276.267 210.795 276.577 208.936 277.506C207.697 268.21 199.639 260.772 189.723 260.772C187.554 260.772 185.075 261.082 183.215 262.012C182.286 255.814 178.257 250.236 172.679 247.447C172.989 246.208 172.989 245.278 172.989 244.038C172.989 236.911 169.27 230.713 163.382 227.304C164.312 223.276 166.171 216.148 170.2 207.781C172.369 209.331 174.538 210.57 177.017 211.5C180.426 212.739 183.835 213.359 187.244 213.359C191.272 213.359 194.991 212.43 198.71 210.88C206.767 207.161 212.965 199.724 214.824 191.047C221.332 168.115 248.602 162.227 248.912 161.917C250.771 161.608 252.011 160.058 252.011 158.199C252.011 156.339 250.771 154.79 248.912 154.48C247.363 154.17 208.316 144.874 175.778 159.438C175.468 159.438 175.468 159.748 175.158 159.748C174.538 151.691 171.13 144.254 165.242 138.056C133.013 106.137 83.1208 99.3197 80.9516 99.0098C79.0923 98.6999 77.5428 99.9395 76.923 101.489C76.3033 103.038 76.923 105.208 78.4725 106.137C78.7824 106.447 109.152 126.28 106.053 157.269C106.053 157.269 106.053 157.269 106.053 157.579C104.193 168.425 107.912 179.891 115.969 187.638C122.787 194.456 131.774 197.865 140.76 197.865C144.479 197.865 147.888 197.245 151.607 196.005C153.156 209.331 151.607 220.177 150.677 225.135C141.38 226.684 134.563 234.742 134.563 244.348C134.563 244.968 134.563 245.588 134.563 245.898C126.505 247.447 120.308 253.955 119.068 262.322C116.899 261.702 114.73 261.082 112.56 261.082C103.264 261.082 95.2066 267.9 93.6571 276.577C83.7406 275.647 75.0637 282.775 72.8945 292.071H4.71868C2.54945 292.071 1 293.931 1 295.79C1 297.649 2.85934 299.509 4.71868 299.509H75.9934C78.1626 299.509 79.7121 297.649 79.7121 295.79C79.7121 289.282 84.9802 284.014 91.4879 284.014C92.7274 284.014 93.967 284.324 95.5164 284.634C96.756 284.944 97.9956 284.944 99.2351 284.014C100.165 283.084 100.785 281.845 100.785 280.605C100.785 280.295 100.785 280.295 100.785 279.986C100.785 273.478 106.053 268.21 112.56 268.21C115.659 268.21 118.758 269.449 120.927 271.928C122.167 273.168 124.026 273.478 125.576 272.548C127.125 271.619 127.745 269.759 127.125 267.9C126.815 266.66 126.505 265.421 126.505 264.181C126.505 257.673 131.774 252.715 138.281 252.715C138.591 252.715 138.591 252.715 138.901 252.715C140.141 252.715 141.38 252.095 142.31 251.166C143.239 250.236 143.239 248.687 142.93 247.447C142.31 246.208 142.31 244.658 142.31 243.419C142.31 236.911 147.578 231.643 154.086 231.643C155.325 231.643 156.255 231.953 157.185 232.262C157.804 232.572 158.424 232.882 159.044 233.192C159.044 233.192 159.044 233.192 159.354 233.192C163.072 235.052 165.861 239.08 165.861 243.419C165.861 244.968 165.552 246.208 164.932 247.757C164.622 248.687 164.622 249.926 164.932 250.856C165.552 251.786 166.171 252.715 167.411 252.715C172.369 253.955 176.088 258.603 176.088 263.871C176.088 265.111 175.778 266.041 175.468 267.59C174.848 269.449 175.468 271.309 177.017 272.238C178.567 273.168 180.426 272.858 181.666 271.619C183.835 269.449 186.934 267.9 190.033 267.9C196.541 267.9 201.809 273.168 201.809 279.676C201.809 280.915 201.499 281.845 201.189 283.394C200.569 285.254 201.189 287.113 202.738 288.043C204.288 288.972 206.147 288.662 207.387 287.423C209.556 285.254 212.655 283.704 215.754 283.704C222.261 283.704 227.53 288.972 227.53 295.48C227.53 297.649 229.389 299.199 231.248 299.199H302.523C304.692 299.199 306.242 297.339 306.242 295.48C306.242 293.621 304.382 291.761 302.213 291.761ZM178.877 166.566C197.47 158.199 219.163 158.509 232.798 159.748C223.191 164.706 211.725 173.383 207.387 188.568C207.387 188.878 207.387 188.878 207.077 189.188C205.837 195.695 201.499 201.274 195.301 203.753C190.343 205.922 184.765 206.232 179.497 204.063C177.327 203.133 175.468 202.203 173.919 200.654C179.807 191.357 189.103 181.75 202.738 175.863C204.598 174.933 205.527 172.764 204.598 170.904C203.668 169.045 201.499 168.115 199.639 169.045C185.385 175.553 175.468 184.849 168.96 194.456C168.65 194.146 168.65 193.836 168.341 193.526C167.101 191.047 166.791 188.258 166.481 185.779C170.82 180.821 173.609 175.243 174.538 169.045C176.088 168.115 177.327 167.186 178.877 166.566ZM157.185 183.92C153.776 169.045 146.648 152.931 132.083 138.366C130.534 136.816 128.055 136.816 126.505 138.366C124.956 139.915 124.956 142.394 126.505 143.944C140.45 157.889 146.958 174.003 149.747 188.258C146.648 189.498 143.549 190.117 140.141 190.117C133.013 190.117 126.196 187.328 120.927 182.06C114.73 175.863 111.941 166.876 113.49 158.199C113.49 157.889 113.49 157.579 113.49 157.579C115.349 136.197 103.883 119.463 94.2769 109.856C111.321 114.194 139.521 123.801 159.354 143.634C164.622 148.902 167.411 155.72 167.411 162.847C167.411 169.975 164.622 176.792 159.354 182.06C158.734 182.68 158.114 183.3 157.185 183.92ZM159.664 212.12C159.974 206.542 159.664 199.724 158.734 192.287C159.044 191.977 159.354 191.977 159.664 191.667C159.974 193.216 160.593 195.076 161.213 196.625C162.143 198.484 163.072 200.344 164.312 201.893C162.453 205.612 160.903 209.021 159.664 212.12Z" fill="#096A2E"/>
<path d="M173.661 47.5C190.661 63 170.139 88.5 157.161 88.5C144.182 88.5 132.161 93.8152 132.161 72C132.161 50.1848 138.182 4.5 151.161 4.5C164.139 4.5 170.661 25.5 173.661 47.5Z" fill="url(#paint1_linear_1_3)"/>
<path d="M153.466 94.9813C171.13 94.9813 181.976 85.9944 181.976 71.4296C181.976 34.8626 157.494 2.63405 156.255 1.39449C154.705 -0.46485 151.607 -0.46485 150.057 1.39449C149.127 2.63405 124.336 35.1725 124.336 71.4296C124.956 85.6845 135.802 94.9813 153.466 94.9813ZM153.466 10.0714C159.974 19.9879 174.538 44.7791 174.538 71.1197C174.538 85.3747 159.974 86.9241 153.466 86.9241C146.958 86.9241 132.393 85.3747 132.393 71.1197C132.393 44.7791 146.958 19.9879 153.466 10.0714Z" fill="#096A2E"/>
</g>
</g>
</g>
</g>
</g>
<defs>
<linearGradient id="paint0_linear_1_3" x1="341.174" y1="223.478" x2="934.957" y2="223.478" gradientUnits="userSpaceOnUse">
<stop stop-color="#096A2E"/>
<stop offset="0.352958" stop-color="#4B5C19"/>
<stop offset="1" stop-color="#964B00"/>
</linearGradient>
<linearGradient id="paint1_linear_1_3" x1="156.661" y1="14" x2="156.661" y2="93" gradientUnits="userSpaceOnUse">
<stop stop-color="#33B7DC" stop-opacity="0"/>
<stop offset="1" stop-color="#00C8FF"/>
</linearGradient>
<clipPath id="clip0_1_3">
<rect width="1000" height="300" fill="white" transform="translate(-0.606079 -0.245697)"/>
</clipPath>
<clipPath id="clip1_1_3">
<rect width="997.109" height="299.509" fill="white" transform="translate(0.839294 -1.52588e-05)"/>
</clipPath>
<clipPath id="clip2_1_3">
<rect width="997.109" height="299.509" fill="white" transform="translate(1 -1.52588e-05)"/>
</clipPath>
<clipPath id="clip3_1_3">
<rect width="669.664" height="114.404" fill="white" transform="translate(291.242 70)"/>
</clipPath>
<clipPath id="clip4_1_3">
<rect width="669.664" height="114.404" fill="white" transform="translate(291.242 70)"/>
</clipPath>
<clipPath id="clip5_1_3">
<rect width="305.242" height="299.509" fill="white" transform="translate(1 -1.52588e-05)"/>
</clipPath>
<clipPath id="clip6_1_3">
<rect width="305.242" height="299.509" fill="white" transform="translate(1 -1.52588e-05)"/>
</clipPath>
</defs>
</svg>
